<svg width="156" height="156" version="1.1" xmlns="http://www.w3.org/2000/svg" xmlns:cc="http://creativecommons.org/ns#" xmlns:dc="http://purl.org/dc/elements/1.1/" xmlns:rdf="http://www.w3.org/1999/02/22-rdf-syntax-ns#">
 <title>lib_jquery</title>
 <metadata>
  <rdf:RDF>
   <cc:Work rdf:about="">
    <dc:format>image/svg+xml</dc:format>
    <dc:type rdf:resource="http://purl.org/dc/dcmitype/StillImage"/>
    <dc:title>lib_jquery</dc:title>
    <dc:creator>
     <cc:Agent>
      <dc:title>typo3@quellenform.at</dc:title>
     </cc:Agent>
    </dc:creator>
    <dc:rights>
     <cc:Agent>
      <dc:title>quellenform.at</dc:title>
     </cc:Agent>
    </dc:rights>
    <dc:date>26.07.2023</dc:date>
   </cc:Work>
  </rdf:RDF>
 </metadata>
 <g transform="translate(-93.429 -345.79)">
  <rect id="background" x="93.429" y="345.79" width="156" height="156" fill="#0868ac"/>
  <path id="shadow" transform="translate(93.429 345.79)" d="m104.16 34.812c-18.237 0-25.203 8.7852-27.312 26.438l-14.562-25.25h-33.469v14.156l17.031 29.5v9.875c0 12.48-1.815 16.906-9.375 16.906-3.84 0-9.3588-0.5875-12.719-1.1875v14.281l21.062 36.469h111.19v-60.094l-28.406-49.188c-0.10777-0.21278-0.23144-0.41793-0.34375-0.625l-0.25-0.4375c-4.1166-7.2326-11.163-10.844-22.844-10.844z" color="#000000" fill-opacity=".39216"/>
  <path id="icon" d="m225.67 480.67v-14.88l-11.88-2.76c9.24-6.24 11.88-19.68 11.88-40.2 0-28.2-5.04-42.24-28.08-42.24-23.04 0-28.08 14.04-28.08 42.24 0 27.6 3.72 42.24 23.76 43.92l32.4 13.92m-16.68-57.24c0 24.24-2.88 30.6-11.4 30.6-8.52 0-11.4-6.36-11.4-30.6 0-24.6 2.88-29.88 11.4-29.88 8.52 0 11.4 5.28 11.4 29.88m-53.282 11.04v-52.68h-33.48v14.16h17.04v39.36c0 12.48-1.8 16.92-9.36 16.92-3.84 0-9.36-0.6-12.72-1.2v14.28c3.84 0.84 10.68 1.68 14.64 1.68 18.72 0 23.88-7.68 23.88-32.52" fill="#fff"/>
 </g>
</svg>
